<mxfile host="app.diagrams.net" agent="Mozilla/5.0 (Windows NT 10.0; Win64; x64) AppleWebKit/537.36 (KHTML, like Gecko) Chrome/132.0.0.0 Safari/537.36" version="26.0.11">
  <diagram name="Page-1" id="uWEKSTsNQUulBt-X28Rp">
    <mxGraphModel dx="1313" dy="663" grid="1" gridSize="10" guides="1" tooltips="1" connect="1" arrows="1" fold="1" page="1" pageScale="1" pageWidth="850" pageHeight="1100" math="0" shadow="0">
      <root>
        <mxCell id="0" />
        <mxCell id="1" parent="0" />
        <mxCell id="v2K9adxlIH0VQ2sVyshX-1" value="&lt;font style=&quot;font-size: 32px;&quot;&gt;InstantParty&lt;/font&gt;" style="text;html=1;align=center;verticalAlign=middle;resizable=0;points=[];autosize=1;strokeColor=none;fillColor=none;" vertex="1" parent="1">
          <mxGeometry width="190" height="50" as="geometry" />
        </mxCell>
        <mxCell id="v2K9adxlIH0VQ2sVyshX-3" value="Actor" style="shape=umlActor;verticalLabelPosition=bottom;verticalAlign=top;html=1;outlineConnect=0;" vertex="1" parent="1">
          <mxGeometry x="40" y="320" width="30" height="60" as="geometry" />
        </mxCell>
        <mxCell id="v2K9adxlIH0VQ2sVyshX-5" value="&lt;font style=&quot;font-size: 16px;&quot;&gt;1. Home page&lt;/font&gt;&lt;div&gt;&lt;font style=&quot;font-size: 16px;&quot;&gt;2. Listings page&lt;/font&gt;&lt;/div&gt;&lt;div&gt;&lt;font style=&quot;font-size: 16px;&quot;&gt;3. Reservation page&lt;/font&gt;&lt;/div&gt;&lt;div&gt;&lt;font style=&quot;font-size: 16px;&quot;&gt;4. Payment page&lt;/font&gt;&lt;/div&gt;&lt;div&gt;&lt;font style=&quot;font-size: 16px;&quot;&gt;5. Account Page&lt;/font&gt;&lt;/div&gt;&lt;div&gt;&lt;font style=&quot;font-size: 16px;&quot;&gt;6. Settings page&lt;/font&gt;&lt;/div&gt;&lt;div&gt;&lt;font style=&quot;font-size: 16px;&quot;&gt;7. Discover page&lt;/font&gt;&lt;/div&gt;&lt;div&gt;&lt;font style=&quot;font-size: 16px;&quot;&gt;8. Contact page&lt;/font&gt;&lt;/div&gt;&lt;div&gt;&lt;font style=&quot;font-size: 16px;&quot;&gt;9. Review page&lt;/font&gt;&lt;/div&gt;&lt;div&gt;&lt;font style=&quot;font-size: 16px;&quot;&gt;10. Confirmation Page&lt;/font&gt;&lt;/div&gt;&lt;div&gt;&lt;font style=&quot;font-size: 16px;&quot;&gt;11. Map page&lt;/font&gt;&lt;/div&gt;&lt;div&gt;&lt;font style=&quot;font-size: 16px;&quot;&gt;12. Tag page&lt;/font&gt;&lt;/div&gt;" style="text;html=1;align=left;verticalAlign=middle;resizable=0;points=[];autosize=1;strokeColor=none;fillColor=none;" vertex="1" parent="1">
          <mxGeometry x="10" y="40" width="180" height="240" as="geometry" />
        </mxCell>
        <mxCell id="v2K9adxlIH0VQ2sVyshX-8" value="1. Home page" style="rounded=0;whiteSpace=wrap;html=1;" vertex="1" parent="1">
          <mxGeometry x="160" y="315.02" width="120" height="60" as="geometry" />
        </mxCell>
        <mxCell id="v2K9adxlIH0VQ2sVyshX-9" value="" style="endArrow=classic;html=1;rounded=0;entryX=0;entryY=0.5;entryDx=0;entryDy=0;" edge="1" parent="1" target="v2K9adxlIH0VQ2sVyshX-8">
          <mxGeometry width="50" height="50" relative="1" as="geometry">
            <mxPoint x="80" y="345.02" as="sourcePoint" />
            <mxPoint x="420" y="285.02" as="targetPoint" />
          </mxGeometry>
        </mxCell>
        <mxCell id="v2K9adxlIH0VQ2sVyshX-10" value="Website" style="edgeLabel;html=1;align=center;verticalAlign=middle;resizable=0;points=[];" vertex="1" connectable="0" parent="v2K9adxlIH0VQ2sVyshX-9">
          <mxGeometry x="0.035" y="-3" relative="1" as="geometry">
            <mxPoint as="offset" />
          </mxGeometry>
        </mxCell>
        <mxCell id="v2K9adxlIH0VQ2sVyshX-11" value="2. Listing page" style="rounded=0;whiteSpace=wrap;html=1;" vertex="1" parent="1">
          <mxGeometry x="640" y="315.02" width="120" height="60" as="geometry" />
        </mxCell>
        <mxCell id="v2K9adxlIH0VQ2sVyshX-12" value="" style="endArrow=classic;html=1;rounded=0;exitX=1;exitY=0.5;exitDx=0;exitDy=0;entryX=0;entryY=0.5;entryDx=0;entryDy=0;" edge="1" parent="1" source="v2K9adxlIH0VQ2sVyshX-8" target="v2K9adxlIH0VQ2sVyshX-26">
          <mxGeometry width="50" height="50" relative="1" as="geometry">
            <mxPoint x="370" y="335.02" as="sourcePoint" />
            <mxPoint x="420" y="285.02" as="targetPoint" />
          </mxGeometry>
        </mxCell>
        <mxCell id="v2K9adxlIH0VQ2sVyshX-27" value="view_discover()" style="edgeLabel;html=1;align=center;verticalAlign=middle;resizable=0;points=[];" vertex="1" connectable="0" parent="v2K9adxlIH0VQ2sVyshX-12">
          <mxGeometry x="0.0252" y="-3" relative="1" as="geometry">
            <mxPoint x="1" as="offset" />
          </mxGeometry>
        </mxCell>
        <mxCell id="v2K9adxlIH0VQ2sVyshX-14" value="11. Map page" style="rounded=0;whiteSpace=wrap;html=1;" vertex="1" parent="1">
          <mxGeometry x="640" y="170" width="120" height="60" as="geometry" />
        </mxCell>
        <mxCell id="v2K9adxlIH0VQ2sVyshX-15" value="" style="endArrow=classic;html=1;rounded=0;exitX=0.5;exitY=0;exitDx=0;exitDy=0;entryX=0.5;entryY=1;entryDx=0;entryDy=0;" edge="1" parent="1" source="v2K9adxlIH0VQ2sVyshX-11" target="v2K9adxlIH0VQ2sVyshX-14">
          <mxGeometry width="50" height="50" relative="1" as="geometry">
            <mxPoint x="690" y="420" as="sourcePoint" />
            <mxPoint x="740" y="370" as="targetPoint" />
          </mxGeometry>
        </mxCell>
        <mxCell id="v2K9adxlIH0VQ2sVyshX-16" value="show_map()" style="edgeLabel;html=1;align=center;verticalAlign=middle;resizable=0;points=[];" vertex="1" connectable="0" parent="v2K9adxlIH0VQ2sVyshX-15">
          <mxGeometry x="-0.16" relative="1" as="geometry">
            <mxPoint as="offset" />
          </mxGeometry>
        </mxCell>
        <mxCell id="v2K9adxlIH0VQ2sVyshX-17" value="3. Reservation page" style="rounded=0;whiteSpace=wrap;html=1;" vertex="1" parent="1">
          <mxGeometry x="880" y="315.02" width="120" height="60" as="geometry" />
        </mxCell>
        <mxCell id="v2K9adxlIH0VQ2sVyshX-18" value="" style="endArrow=classic;html=1;rounded=0;exitX=1;exitY=0.5;exitDx=0;exitDy=0;entryX=0;entryY=0.5;entryDx=0;entryDy=0;" edge="1" parent="1" source="v2K9adxlIH0VQ2sVyshX-11" target="v2K9adxlIH0VQ2sVyshX-17">
          <mxGeometry width="50" height="50" relative="1" as="geometry">
            <mxPoint x="690" y="445.02" as="sourcePoint" />
            <mxPoint x="740" y="395.02" as="targetPoint" />
          </mxGeometry>
        </mxCell>
        <mxCell id="v2K9adxlIH0VQ2sVyshX-22" value="view_reservation()" style="edgeLabel;html=1;align=center;verticalAlign=middle;resizable=0;points=[];" vertex="1" connectable="0" parent="v2K9adxlIH0VQ2sVyshX-18">
          <mxGeometry x="-0.0533" y="-1" relative="1" as="geometry">
            <mxPoint as="offset" />
          </mxGeometry>
        </mxCell>
        <mxCell id="v2K9adxlIH0VQ2sVyshX-19" value="5. Account page" style="rounded=0;whiteSpace=wrap;html=1;" vertex="1" parent="1">
          <mxGeometry x="160" y="465.02" width="120" height="60" as="geometry" />
        </mxCell>
        <mxCell id="v2K9adxlIH0VQ2sVyshX-20" value="" style="endArrow=classic;html=1;rounded=0;exitX=0.5;exitY=1;exitDx=0;exitDy=0;entryX=0.5;entryY=0;entryDx=0;entryDy=0;" edge="1" parent="1" source="v2K9adxlIH0VQ2sVyshX-8" target="v2K9adxlIH0VQ2sVyshX-19">
          <mxGeometry width="50" height="50" relative="1" as="geometry">
            <mxPoint x="370" y="335.02" as="sourcePoint" />
            <mxPoint x="420" y="285.02" as="targetPoint" />
          </mxGeometry>
        </mxCell>
        <mxCell id="v2K9adxlIH0VQ2sVyshX-21" value="view_profile()" style="edgeLabel;html=1;align=center;verticalAlign=middle;resizable=0;points=[];" vertex="1" connectable="0" parent="v2K9adxlIH0VQ2sVyshX-20">
          <mxGeometry x="-0.3589" y="1" relative="1" as="geometry">
            <mxPoint y="-1" as="offset" />
          </mxGeometry>
        </mxCell>
        <mxCell id="v2K9adxlIH0VQ2sVyshX-23" value="6. Settings page" style="rounded=0;whiteSpace=wrap;html=1;" vertex="1" parent="1">
          <mxGeometry x="160" y="585.02" width="120" height="60" as="geometry" />
        </mxCell>
        <mxCell id="v2K9adxlIH0VQ2sVyshX-24" value="" style="endArrow=classic;html=1;rounded=0;exitX=0.5;exitY=1;exitDx=0;exitDy=0;entryX=0.5;entryY=0;entryDx=0;entryDy=0;" edge="1" parent="1" source="v2K9adxlIH0VQ2sVyshX-19" target="v2K9adxlIH0VQ2sVyshX-23">
          <mxGeometry width="50" height="50" relative="1" as="geometry">
            <mxPoint x="370" y="435.02" as="sourcePoint" />
            <mxPoint x="420" y="385.02" as="targetPoint" />
          </mxGeometry>
        </mxCell>
        <mxCell id="v2K9adxlIH0VQ2sVyshX-25" value="view_settings()" style="edgeLabel;html=1;align=center;verticalAlign=middle;resizable=0;points=[];" vertex="1" connectable="0" parent="v2K9adxlIH0VQ2sVyshX-24">
          <mxGeometry x="-0.176" y="4" relative="1" as="geometry">
            <mxPoint as="offset" />
          </mxGeometry>
        </mxCell>
        <mxCell id="v2K9adxlIH0VQ2sVyshX-26" value="7. Discover page" style="rounded=0;whiteSpace=wrap;html=1;" vertex="1" parent="1">
          <mxGeometry x="390" y="315.02" width="120" height="60" as="geometry" />
        </mxCell>
        <mxCell id="v2K9adxlIH0VQ2sVyshX-28" value="" style="endArrow=classic;html=1;rounded=0;exitX=1;exitY=0.5;exitDx=0;exitDy=0;entryX=0;entryY=0.5;entryDx=0;entryDy=0;" edge="1" parent="1" source="v2K9adxlIH0VQ2sVyshX-26" target="v2K9adxlIH0VQ2sVyshX-11">
          <mxGeometry width="50" height="50" relative="1" as="geometry">
            <mxPoint x="370" y="345.02" as="sourcePoint" />
            <mxPoint x="420" y="295.02" as="targetPoint" />
          </mxGeometry>
        </mxCell>
        <mxCell id="v2K9adxlIH0VQ2sVyshX-29" value="view_listing()" style="edgeLabel;html=1;align=center;verticalAlign=middle;resizable=0;points=[];" vertex="1" connectable="0" parent="v2K9adxlIH0VQ2sVyshX-28">
          <mxGeometry x="-0.1333" y="-3" relative="1" as="geometry">
            <mxPoint as="offset" />
          </mxGeometry>
        </mxCell>
        <mxCell id="v2K9adxlIH0VQ2sVyshX-30" value="8. Contact page" style="rounded=0;whiteSpace=wrap;html=1;" vertex="1" parent="1">
          <mxGeometry x="640" y="425.02" width="120" height="60" as="geometry" />
        </mxCell>
        <mxCell id="v2K9adxlIH0VQ2sVyshX-31" value="" style="endArrow=classic;html=1;rounded=0;exitX=0.5;exitY=1;exitDx=0;exitDy=0;entryX=0.5;entryY=0;entryDx=0;entryDy=0;" edge="1" parent="1" source="v2K9adxlIH0VQ2sVyshX-11" target="v2K9adxlIH0VQ2sVyshX-30">
          <mxGeometry width="50" height="50" relative="1" as="geometry">
            <mxPoint x="480" y="405.02" as="sourcePoint" />
            <mxPoint x="530" y="355.02" as="targetPoint" />
          </mxGeometry>
        </mxCell>
        <mxCell id="v2K9adxlIH0VQ2sVyshX-32" value="view_contact_info()" style="edgeLabel;html=1;align=center;verticalAlign=middle;resizable=0;points=[];" vertex="1" connectable="0" parent="v2K9adxlIH0VQ2sVyshX-31">
          <mxGeometry x="-0.104" y="-1" relative="1" as="geometry">
            <mxPoint as="offset" />
          </mxGeometry>
        </mxCell>
        <mxCell id="v2K9adxlIH0VQ2sVyshX-33" value="" style="endArrow=classic;html=1;rounded=0;exitX=1;exitY=0;exitDx=0;exitDy=0;entryX=0;entryY=1;entryDx=0;entryDy=0;" edge="1" parent="1" source="v2K9adxlIH0VQ2sVyshX-11" target="v2K9adxlIH0VQ2sVyshX-34">
          <mxGeometry width="50" height="50" relative="1" as="geometry">
            <mxPoint x="480" y="380" as="sourcePoint" />
            <mxPoint x="800" y="240" as="targetPoint" />
          </mxGeometry>
        </mxCell>
        <mxCell id="v2K9adxlIH0VQ2sVyshX-39" value="show_reviews()" style="edgeLabel;html=1;align=center;verticalAlign=middle;resizable=0;points=[];" vertex="1" connectable="0" parent="v2K9adxlIH0VQ2sVyshX-33">
          <mxGeometry x="0.04" relative="1" as="geometry">
            <mxPoint as="offset" />
          </mxGeometry>
        </mxCell>
        <mxCell id="v2K9adxlIH0VQ2sVyshX-34" value="9. Review page" style="rounded=0;whiteSpace=wrap;html=1;" vertex="1" parent="1">
          <mxGeometry x="820" y="170" width="120" height="60" as="geometry" />
        </mxCell>
        <mxCell id="v2K9adxlIH0VQ2sVyshX-36" value="3. Payment page" style="rounded=0;whiteSpace=wrap;html=1;" vertex="1" parent="1">
          <mxGeometry x="1120" y="315.02" width="120" height="60" as="geometry" />
        </mxCell>
        <mxCell id="v2K9adxlIH0VQ2sVyshX-37" value="" style="endArrow=classic;html=1;rounded=0;exitX=1;exitY=0.5;exitDx=0;exitDy=0;entryX=0;entryY=0.5;entryDx=0;entryDy=0;" edge="1" parent="1" source="v2K9adxlIH0VQ2sVyshX-17" target="v2K9adxlIH0VQ2sVyshX-36">
          <mxGeometry width="50" height="50" relative="1" as="geometry">
            <mxPoint x="840" y="365.02" as="sourcePoint" />
            <mxPoint x="890" y="315.02" as="targetPoint" />
          </mxGeometry>
        </mxCell>
        <mxCell id="v2K9adxlIH0VQ2sVyshX-38" value="view_payment()" style="edgeLabel;html=1;align=center;verticalAlign=middle;resizable=0;points=[];" vertex="1" connectable="0" parent="v2K9adxlIH0VQ2sVyshX-37">
          <mxGeometry x="-0.2178" y="-3" relative="1" as="geometry">
            <mxPoint as="offset" />
          </mxGeometry>
        </mxCell>
        <mxCell id="v2K9adxlIH0VQ2sVyshX-40" value="" style="endArrow=classic;html=1;rounded=0;exitX=0.5;exitY=0;exitDx=0;exitDy=0;entryX=1;entryY=1;entryDx=0;entryDy=0;" edge="1" parent="1" source="v2K9adxlIH0VQ2sVyshX-36" target="v2K9adxlIH0VQ2sVyshX-34">
          <mxGeometry width="50" height="50" relative="1" as="geometry">
            <mxPoint x="550" y="330" as="sourcePoint" />
            <mxPoint x="600" y="280" as="targetPoint" />
          </mxGeometry>
        </mxCell>
        <mxCell id="v2K9adxlIH0VQ2sVyshX-41" value="show_reviews()" style="edgeLabel;html=1;align=center;verticalAlign=middle;resizable=0;points=[];" vertex="1" connectable="0" parent="v2K9adxlIH0VQ2sVyshX-40">
          <mxGeometry x="0.0113" y="-1" relative="1" as="geometry">
            <mxPoint as="offset" />
          </mxGeometry>
        </mxCell>
        <mxCell id="v2K9adxlIH0VQ2sVyshX-43" value="" style="endArrow=classic;html=1;rounded=0;exitX=0.75;exitY=0;exitDx=0;exitDy=0;entryX=0;entryY=0.75;entryDx=0;entryDy=0;" edge="1" parent="1" source="v2K9adxlIH0VQ2sVyshX-26" target="v2K9adxlIH0VQ2sVyshX-14">
          <mxGeometry width="50" height="50" relative="1" as="geometry">
            <mxPoint x="610" y="360" as="sourcePoint" />
            <mxPoint x="660" y="310" as="targetPoint" />
          </mxGeometry>
        </mxCell>
        <mxCell id="v2K9adxlIH0VQ2sVyshX-44" value="show_map()" style="edgeLabel;html=1;align=center;verticalAlign=middle;resizable=0;points=[];" vertex="1" connectable="0" parent="v2K9adxlIH0VQ2sVyshX-43">
          <mxGeometry x="-0.0477" y="7" relative="1" as="geometry">
            <mxPoint y="-1" as="offset" />
          </mxGeometry>
        </mxCell>
        <mxCell id="v2K9adxlIH0VQ2sVyshX-45" value="12. Tag Page" style="rounded=0;whiteSpace=wrap;html=1;" vertex="1" parent="1">
          <mxGeometry x="390" y="465.02" width="120" height="60" as="geometry" />
        </mxCell>
        <mxCell id="v2K9adxlIH0VQ2sVyshX-46" value="" style="endArrow=classic;startArrow=classic;html=1;rounded=0;exitX=0.5;exitY=1;exitDx=0;exitDy=0;entryX=0.5;entryY=0;entryDx=0;entryDy=0;" edge="1" parent="1" source="v2K9adxlIH0VQ2sVyshX-26" target="v2K9adxlIH0VQ2sVyshX-45">
          <mxGeometry width="50" height="50" relative="1" as="geometry">
            <mxPoint x="610" y="385.02" as="sourcePoint" />
            <mxPoint x="660" y="335.02" as="targetPoint" />
          </mxGeometry>
        </mxCell>
        <mxCell id="v2K9adxlIH0VQ2sVyshX-47" value="show_tag()" style="edgeLabel;html=1;align=center;verticalAlign=middle;resizable=0;points=[];" vertex="1" connectable="0" parent="v2K9adxlIH0VQ2sVyshX-46">
          <mxGeometry x="0.0556" y="-4" relative="1" as="geometry">
            <mxPoint as="offset" />
          </mxGeometry>
        </mxCell>
        <mxCell id="v2K9adxlIH0VQ2sVyshX-48" value="" style="endArrow=classic;html=1;rounded=0;exitX=0;exitY=1;exitDx=0;exitDy=0;entryX=1;entryY=0;entryDx=0;entryDy=0;" edge="1" parent="1" source="v2K9adxlIH0VQ2sVyshX-11" target="v2K9adxlIH0VQ2sVyshX-45">
          <mxGeometry width="50" height="50" relative="1" as="geometry">
            <mxPoint x="610" y="385.02" as="sourcePoint" />
            <mxPoint x="660" y="335.02" as="targetPoint" />
          </mxGeometry>
        </mxCell>
        <mxCell id="v2K9adxlIH0VQ2sVyshX-49" value="show_tag()" style="edgeLabel;html=1;align=center;verticalAlign=middle;resizable=0;points=[];" vertex="1" connectable="0" parent="v2K9adxlIH0VQ2sVyshX-48">
          <mxGeometry x="0.0348" y="3" relative="1" as="geometry">
            <mxPoint x="-1" as="offset" />
          </mxGeometry>
        </mxCell>
        <mxCell id="v2K9adxlIH0VQ2sVyshX-51" value="10. Confirmation page" style="rounded=0;whiteSpace=wrap;html=1;" vertex="1" parent="1">
          <mxGeometry x="1380" y="315.02" width="120" height="60" as="geometry" />
        </mxCell>
        <mxCell id="v2K9adxlIH0VQ2sVyshX-52" value="" style="endArrow=classic;html=1;rounded=0;exitX=1;exitY=0.5;exitDx=0;exitDy=0;entryX=0;entryY=0.5;entryDx=0;entryDy=0;" edge="1" parent="1" source="v2K9adxlIH0VQ2sVyshX-36" target="v2K9adxlIH0VQ2sVyshX-51">
          <mxGeometry width="50" height="50" relative="1" as="geometry">
            <mxPoint x="1130" y="480" as="sourcePoint" />
            <mxPoint x="1180" y="430" as="targetPoint" />
          </mxGeometry>
        </mxCell>
        <mxCell id="v2K9adxlIH0VQ2sVyshX-53" value="view_confirmation()" style="edgeLabel;html=1;align=center;verticalAlign=middle;resizable=0;points=[];" vertex="1" connectable="0" parent="v2K9adxlIH0VQ2sVyshX-52">
          <mxGeometry x="-0.2286" y="1" relative="1" as="geometry">
            <mxPoint x="-1" as="offset" />
          </mxGeometry>
        </mxCell>
      </root>
    </mxGraphModel>
  </diagram>
</mxfile>
